HIERARCHY
ROOT SpineBase
{
  OFFSET 0.000000 0.000000 0.000000
  CHANNELS 6 Xposition Yposition Zposition Zrotation Xrotation Yrotation
  JOINT SpineMid
  {
    OFFSET 0.000000 30.054541 0.000000
    CHANNELS 3 Zrotation Xrotation Yrotation
    JOINT SpineShoulder
    {
      OFFSET -0.108961 22.321994 -0.727729
      CHANNELS 3 Zrotation Xrotation Yrotation
      JOINT Neck
      {
        OFFSET -0.085934 7.362174 -0.516143
        CHANNELS 3 Zrotation Xrotation Yrotation
        JOINT Head
        {
          OFFSET 3.425761 12.771869 0.026015
          CHANNELS 3 Zrotation Xrotation Yrotation
          End Site
          {
            OFFSET 0 0 0
          }
        }
      }
      JOINT ShoulderLeft
      {
        OFFSET -14.693462 -3.892877 -9.013734
        CHANNELS 3 Zrotation Xrotation Yrotation
        JOINT ElbowLeft
        {
          OFFSET -6.040576 -24.264356 -2.226600
          CHANNELS 3 Zrotation Xrotation Yrotation
          JOINT WristLeft
          {
            OFFSET 0.411646 -18.561009 -3.699815
            CHANNELS 3 Zrotation Xrotation Yrotation
            JOINT HandLeft
            {
              OFFSET 0.675478 -3.560779 0.782394
              CHANNELS 3 Zrotation Xrotation Yrotation
              JOINT HandTipLeft
              {
                OFFSET 0.249056 -4.848087 -0.509295
                CHANNELS 3 Zrotation Xrotation Yrotation
                End Site
                {
                  OFFSET 0 0 0
                }
              }
              JOINT ThumbLeft
              {
                OFFSET 3.354817 0.023629 -1.765475
                CHANNELS 3 Zrotation Xrotation Yrotation
                End Site
                {
                  OFFSET 0 0 0
                }
              }
            }
          }
        }
      }
      JOINT ShoulderRight
      {
        OFFSET 15.401456 -5.078719 3.429275
        CHANNELS 3 Zrotation Xrotation Yrotation
        JOINT ElbowRight
        {
          OFFSET 4.555015 -24.172811 2.796670
          CHANNELS 3 Zrotation Xrotation Yrotation
          JOINT WristRight
          {
            OFFSET -1.331810 -20.901928 -2.450575
            CHANNELS 3 Zrotation Xrotation Yrotation
            JOINT HandRight
            {
              OFFSET -0.526444 -4.178220 0.022003
              CHANNELS 3 Zrotation Xrotation Yrotation
              JOINT HandTipRight
              {
                OFFSET -0.255144 -7.227193 2.108658
                CHANNELS 3 Zrotation Xrotation Yrotation
                End Site
                {
                  OFFSET 0 0 0
                }
              }
              JOINT ThumbRight
              {
                OFFSET -3.499329 0.471434 -1.778769
                CHANNELS 3 Zrotation Xrotation Yrotation
                End Site
                {
                  OFFSET 0 0 0
                }
              }
            }
          }
        }
      }
    }
  }
  JOINT HipLeft
  {
    OFFSET -7.191611 0.912804 -6.367546
    CHANNELS 3 Zrotation Xrotation Yrotation
    JOINT KneeLeft
    {
      OFFSET -6.457512 -27.881889 9.984101
      CHANNELS 3 Zrotation Xrotation Yrotation
      JOINT AnkleLeft
      {
        OFFSET -2.648221 -29.583219 7.226995
        CHANNELS 3 Zrotation Xrotation Yrotation
        JOINT FootLeft
        {
          OFFSET 3.150598 -3.761545 -11.262108
          CHANNELS 3 Zrotation Xrotation Yrotation
          End Site
          {
            OFFSET 0 0 0
          }
        }
      }
    }
  }
  JOINT HipRight
  {
    OFFSET 6.580441 0.269572 -0.433003
    CHANNELS 3 Zrotation Xrotation Yrotation
    JOINT KneeRight
    {
      OFFSET -6.778901 -28.279783 10.920657
      CHANNELS 3 Zrotation Xrotation Yrotation
      JOINT AnkleRight
      {
        OFFSET -4.752023 -29.284886 8.168408
        CHANNELS 3 Zrotation Xrotation Yrotation
        JOINT FootRight
        {
          OFFSET 3.637352 -3.117101 -13.313803
          CHANNELS 3 Zrotation Xrotation Yrotation
          End Site
          {
            OFFSET 0 0 0
          }
        }
      }
    }
  }
}
MOTION
Frames: 5
Frame Time: 0.033333
30.422327 66.476670 356.163859 -0.000000 0.000000 -23.311790 -0.000000 0.000000 23.311790 -0.000000 0.000000 0.000000 -0.000000 0.000000 0.000000 0.000000 0.000000 0.000000 -0.000000 0.000000 0.000000 -0.000000 0.000000 0.000000 -0.000000 0.000000 0.000000 -0.000000 0.000000 0.000000 0.000000 0.000000 0.000000 0.000000 0.000000 0.000000 -0.000000 0.000000 0.000000 -0.000000 0.000000 0.000000 -0.000000 0.000000 0.000000 -0.000000 0.000000 0.000000 0.000000 0.000000 0.000000 0.000000 0.000000 0.000000 -0.000000 0.000000 23.311790 -0.000000 0.000000 0.000000 -0.000000 0.000000 0.000000 0.000000 0.000000 0.000000 -0.000000 0.000000 23.311790 -0.000000 0.000000 0.000000 -0.000000 0.000000 0.000000 0.000000 0.000000 0.000000
30.530554 66.379401 356.460715 0.206245 -0.118989 -23.231249 -0.236457 0.027988 23.231521 -0.000000 0.000000 0.000000 -0.000000 0.000000 0.000000 0.000000 0.000000 0.000000 1.126319 0.770783 -0.303378 -2.778470 -2.582178 0.532482 -6.280895 3.173973 -1.488808 7.304279 -4.967032 1.445423 0.000000 0.000000 0.000000 0.000000 0.000000 0.000000 -0.123744 0.943039 0.164598 -0.326802 -2.079320 -0.049718 -3.419208 -1.861485 0.203498 3.881224 2.979745 -0.458078 0.000000 0.000000 0.000000 0.000000 0.000000 0.000000 -0.908087 0.660158 22.907330 0.372647 -0.843712 0.330969 -0.000000 0.000000 0.000000 0.000000 0.000000 0.000000 -0.236457 0.027988 23.231521 -0.000000 0.000000 0.000000 -1.828115 -7.235865 -1.070452 0.000000 0.000000 0.000000
30.609668 66.297709 356.705898 0.372906 -0.225756 -23.155310 -0.431639 0.060929 23.156274 -0.000000 0.000000 0.000000 -0.000000 0.000000 0.000000 0.000000 0.000000 0.000000 1.905322 1.264164 -0.512202 -4.548877 -4.295465 0.810062 -11.225324 6.265606 -1.925180 13.345481 -9.558518 2.517525 0.000000 0.000000 0.000000 0.000000 0.000000 0.000000 -0.198770 1.595994 0.281077 -0.536862 -3.302151 -0.113353 -5.801315 -2.700247 0.259760 7.579473 5.158555 -0.590670 0.000000 0.000000 0.000000 0.000000 0.000000 0.000000 -1.623317 1.208750 22.583818 0.659793 -1.517282 0.594397 -0.000000 0.000000 0.000000 0.000000 0.000000 0.000000 -0.431639 0.060929 23.156274 -0.189474 1.094685 -0.229227 -3.995948 -16.831895 -2.469834 0.000000 0.000000 0.000000
30.659668 66.231593 356.899410 0.500474 -0.320537 -23.084747 -0.586079 0.098628 23.086652 -0.000000 0.000000 0.000000 -0.000000 0.000000 0.000000 0.000000 0.000000 0.000000 2.340426 1.488534 -0.618195 -5.352639 -5.144239 0.913653 -14.323476 9.108382 -1.560710 17.455155 -13.876976 3.167276 0.000000 0.000000 0.000000 0.000000 0.000000 0.000000 -0.223637 1.961125 0.348352 -0.641016 -3.716933 -0.172153 -7.380735 -2.654512 0.224009 9.485766 6.171711 -0.656267 0.000000 0.000000 0.000000 0.000000 0.000000 0.000000 -2.136511 1.631589 22.343714 1.432938 -2.725370 1.009442 -0.567957 0.728452 -0.200571 0.000000 0.000000 0.000000 -0.586079 0.098628 23.086652 -0.148419 1.506621 -0.284923 -6.798375 -25.607000 -4.452542 0.000000 0.000000 0.000000
30.680554 66.181053 357.041250 0.589319 -0.403531 -23.020272 -0.700193 0.140921 23.023208 -0.000000 0.000000 0.000000 -0.000000 0.000000 0.000000 0.000000 0.000000 0.000000 2.433949 1.448451 -0.617306 -5.213957 -5.139727 0.879250 -15.266980 11.678531 -0.650755 19.170114 -18.062175 3.299948 0.000000 0.000000 0.000000 0.000000 0.000000 0.000000 -0.197504 2.039827 0.365954 -0.643530 -3.341167 -0.218704 -8.267381 -1.705790 0.111254 10.305436 6.289545 -0.442569 0.000000 0.000000 0.000000 0.000000 0.000000 0.000000 -2.441977 1.918485 22.188230 1.659255 -2.881474 1.142945 -0.704543 0.592270 -0.221653 0.000000 0.000000 0.000000 -0.700193 0.140921 23.023208 -0.017334 1.829003 -0.302713 -9.347928 -32.019551 -6.262752 0.000000 0.000000 0.000000
